<mxfile host="app.diagrams.net" agent="Mozilla/5.0 (Windows NT 10.0; Win64; x64) AppleWebKit/537.36 (KHTML, like Gecko) Chrome/131.0.0.0 Safari/537.36" version="24.8.6">
  <diagram name="Page-1" id="N9vQ-8Cf4nmnBGDt8-Jk">
    <mxGraphModel dx="1055" dy="1053" grid="1" gridSize="10" guides="1" tooltips="1" connect="1" arrows="1" fold="1" page="1" pageScale="1" pageWidth="850" pageHeight="1100" math="0" shadow="0">
      <root>
        <mxCell id="0" />
        <mxCell id="1" parent="0" />
        <mxCell id="_l5loxVIPQLOWfMqPPV5-1" value="&lt;b&gt;&lt;u&gt;&lt;font style=&quot;font-size: 36px;&quot;&gt;E-Voting System&lt;/font&gt;&lt;/u&gt;&lt;/b&gt;" style="text;html=1;align=center;verticalAlign=middle;whiteSpace=wrap;rounded=0;" vertex="1" parent="1">
          <mxGeometry x="258" y="220" width="335" height="50" as="geometry" />
        </mxCell>
        <mxCell id="_l5loxVIPQLOWfMqPPV5-2" value="&lt;font style=&quot;font-size: 24px;&quot;&gt;&lt;b style=&quot;&quot;&gt;Meenakshi Bharadwaj&lt;/b&gt;&lt;/font&gt;&lt;div&gt;&lt;font style=&quot;font-size: 24px;&quot;&gt;&lt;b&gt;MCA-III-B&lt;/b&gt;&lt;/font&gt;&lt;/div&gt;&lt;div&gt;&lt;font style=&quot;font-size: 24px;&quot;&gt;&lt;b&gt;2300290140102&lt;/b&gt;&lt;/font&gt;&lt;/div&gt;&lt;div&gt;&lt;font style=&quot;font-size: 24px;&quot;&gt;&lt;b style=&quot;&quot;&gt;&lt;u style=&quot;&quot;&gt;SE Practical 09&lt;/u&gt;&lt;/b&gt;&lt;/font&gt;&lt;/div&gt;" style="text;html=1;align=center;verticalAlign=middle;whiteSpace=wrap;rounded=0;" vertex="1" parent="1">
          <mxGeometry x="25" y="10" width="800" height="130" as="geometry" />
        </mxCell>
        <mxCell id="_l5loxVIPQLOWfMqPPV5-3" value="&lt;font style=&quot;&quot;&gt;&lt;span style=&quot;font-size: 18px; color: rgb(101, 101, 101); font-family: &amp;quot;Century Gothic&amp;quot;, Arial, Helvetica, sans-serif; font-style: normal; font-variant-ligatures: normal; font-variant-caps: normal; letter-spacing: normal; orphans: 2; text-indent: 0px; text-transform: none; widows: 2; word-spacing: 0px; -webkit-text-stroke-width: 0px; white-space: normal; background-color: rgb(255, 255, 255); text-decoration-thickness: initial; text-decoration-style: initial; text-decoration-color: initial; float: none; display: inline !important;&quot;&gt;&lt;font style=&quot;&quot;&gt;&lt;u style=&quot;&quot;&gt;Practical 09:&lt;/u&gt;&amp;nbsp;&lt;/font&gt;&lt;/span&gt;&lt;font style=&quot;font-size: 18px;&quot;&gt;&lt;span style=&quot;color: rgb(101, 101, 101); font-family: &amp;quot;Century Gothic&amp;quot;, Arial, Helvetica, sans-serif; text-align: left; background-color: rgb(255, 255, 255);&quot;&gt;Draw the&amp;nbsp;&lt;/span&gt;&lt;span style=&quot;color: rgb(101, 101, 101); font-family: &amp;quot;Century Gothic&amp;quot;, Arial, Helvetica, sans-serif; text-align: left; background-color: rgb(255, 255, 255);&quot;&gt;&lt;font style=&quot;&quot;&gt;state chart diagram&lt;/font&gt;&lt;/span&gt;&lt;span style=&quot;color: rgb(101, 101, 101); font-family: &amp;quot;Century Gothic&amp;quot;, Arial, Helvetica, sans-serif; text-align: left; background-color: rgb(255, 255, 255);&quot;&gt;&amp;nbsp;for the specified Case Study.&lt;/span&gt;&lt;/font&gt;&lt;/font&gt;" style="text;whiteSpace=wrap;html=1;align=center;fontStyle=1" vertex="1" parent="1">
          <mxGeometry x="109" y="159" width="632" height="40" as="geometry" />
        </mxCell>
        <mxCell id="_l5loxVIPQLOWfMqPPV5-4" value="&lt;font style=&quot;font-size: 18px;&quot;&gt;&lt;b&gt;Verify Account&lt;/b&gt;&lt;/font&gt;" style="html=1;whiteSpace=wrap;" vertex="1" parent="1">
          <mxGeometry x="21" y="661" width="810" height="50" as="geometry" />
        </mxCell>
        <mxCell id="_l5loxVIPQLOWfMqPPV5-56" style="edgeStyle=orthogonalEdgeStyle;rounded=0;orthogonalLoop=1;jettySize=auto;html=1;exitX=1;exitY=0.5;exitDx=0;exitDy=0;entryX=0;entryY=0.5;entryDx=0;entryDy=0;" edge="1" parent="1" source="_l5loxVIPQLOWfMqPPV5-5" target="_l5loxVIPQLOWfMqPPV5-9">
          <mxGeometry relative="1" as="geometry" />
        </mxCell>
        <mxCell id="_l5loxVIPQLOWfMqPPV5-5" value="" style="ellipse;html=1;" vertex="1" parent="1">
          <mxGeometry x="11" y="531" width="60" height="57" as="geometry" />
        </mxCell>
        <mxCell id="_l5loxVIPQLOWfMqPPV5-11" style="edgeStyle=orthogonalEdgeStyle;rounded=0;orthogonalLoop=1;jettySize=auto;html=1;exitX=1;exitY=0.5;exitDx=0;exitDy=0;entryX=0.5;entryY=0;entryDx=0;entryDy=0;" edge="1" parent="1" source="_l5loxVIPQLOWfMqPPV5-9" target="_l5loxVIPQLOWfMqPPV5-4">
          <mxGeometry relative="1" as="geometry">
            <mxPoint x="401" y="526.3333333333333" as="targetPoint" />
          </mxGeometry>
        </mxCell>
        <mxCell id="_l5loxVIPQLOWfMqPPV5-9" value="&lt;font style=&quot;font-size: 18px;&quot;&gt;&lt;b&gt;Idle&lt;/b&gt;&lt;/font&gt;" style="html=1;align=center;verticalAlign=top;rounded=1;absoluteArcSize=1;arcSize=10;dashed=0;whiteSpace=wrap;" vertex="1" parent="1">
          <mxGeometry x="159" y="539.5" width="140" height="40" as="geometry" />
        </mxCell>
        <mxCell id="_l5loxVIPQLOWfMqPPV5-13" style="edgeStyle=orthogonalEdgeStyle;rounded=0;orthogonalLoop=1;jettySize=auto;html=1;exitX=0;exitY=0.5;exitDx=0;exitDy=0;entryX=0.75;entryY=0;entryDx=0;entryDy=0;" edge="1" parent="1" source="_l5loxVIPQLOWfMqPPV5-12" target="_l5loxVIPQLOWfMqPPV5-9">
          <mxGeometry relative="1" as="geometry">
            <mxPoint x="451" y="476.33333333333326" as="targetPoint" />
          </mxGeometry>
        </mxCell>
        <mxCell id="_l5loxVIPQLOWfMqPPV5-12" value="" style="ellipse;" vertex="1" parent="1">
          <mxGeometry x="451" y="461" width="65" height="60" as="geometry" />
        </mxCell>
        <mxCell id="_l5loxVIPQLOWfMqPPV5-15" style="edgeStyle=orthogonalEdgeStyle;rounded=0;orthogonalLoop=1;jettySize=auto;html=1;exitX=0;exitY=0.5;exitDx=0;exitDy=0;entryX=1;entryY=0.5;entryDx=0;entryDy=0;" edge="1" parent="1" source="_l5loxVIPQLOWfMqPPV5-14" target="_l5loxVIPQLOWfMqPPV5-12">
          <mxGeometry relative="1" as="geometry" />
        </mxCell>
        <mxCell id="_l5loxVIPQLOWfMqPPV5-20" style="edgeStyle=orthogonalEdgeStyle;rounded=0;orthogonalLoop=1;jettySize=auto;html=1;exitX=0.5;exitY=0;exitDx=0;exitDy=0;entryX=0.5;entryY=1;entryDx=0;entryDy=0;" edge="1" parent="1" source="_l5loxVIPQLOWfMqPPV5-14">
          <mxGeometry relative="1" as="geometry">
            <mxPoint x="711" y="421" as="targetPoint" />
          </mxGeometry>
        </mxCell>
        <mxCell id="_l5loxVIPQLOWfMqPPV5-14" value="&lt;b&gt;&lt;font style=&quot;font-size: 18px;&quot;&gt;Dispense Money&lt;/font&gt;&lt;/b&gt;" style="html=1;align=center;verticalAlign=top;rounded=1;absoluteArcSize=1;arcSize=10;dashed=0;whiteSpace=wrap;" vertex="1" parent="1">
          <mxGeometry x="621" y="466" width="180" height="50" as="geometry" />
        </mxCell>
        <mxCell id="_l5loxVIPQLOWfMqPPV5-17" style="edgeStyle=orthogonalEdgeStyle;rounded=0;orthogonalLoop=1;jettySize=auto;html=1;exitX=0.5;exitY=0;exitDx=0;exitDy=0;entryX=0.5;entryY=1;entryDx=0;entryDy=0;" edge="1" parent="1" source="_l5loxVIPQLOWfMqPPV5-16" target="_l5loxVIPQLOWfMqPPV5-14">
          <mxGeometry relative="1" as="geometry" />
        </mxCell>
        <mxCell id="_l5loxVIPQLOWfMqPPV5-21" style="edgeStyle=orthogonalEdgeStyle;rounded=0;orthogonalLoop=1;jettySize=auto;html=1;exitX=1;exitY=0.5;exitDx=0;exitDy=0;entryX=1;entryY=0.5;entryDx=0;entryDy=0;" edge="1" parent="1" source="_l5loxVIPQLOWfMqPPV5-16">
          <mxGeometry relative="1" as="geometry">
            <mxPoint x="801" y="396" as="targetPoint" />
            <Array as="points">
              <mxPoint x="821" y="576" />
              <mxPoint x="821" y="396" />
            </Array>
          </mxGeometry>
        </mxCell>
        <mxCell id="_l5loxVIPQLOWfMqPPV5-16" value="&lt;b&gt;&lt;font style=&quot;font-size: 18px;&quot;&gt;Account Actions&lt;/font&gt;&lt;/b&gt;" style="html=1;align=center;verticalAlign=top;rounded=1;absoluteArcSize=1;arcSize=10;dashed=0;whiteSpace=wrap;" vertex="1" parent="1">
          <mxGeometry x="621" y="553" width="180" height="46" as="geometry" />
        </mxCell>
        <mxCell id="_l5loxVIPQLOWfMqPPV5-22" style="edgeStyle=orthogonalEdgeStyle;rounded=0;orthogonalLoop=1;jettySize=auto;html=1;exitX=0;exitY=0.5;exitDx=0;exitDy=0;entryX=0.5;entryY=0;entryDx=0;entryDy=0;" edge="1" parent="1" target="_l5loxVIPQLOWfMqPPV5-12">
          <mxGeometry relative="1" as="geometry">
            <mxPoint x="601" y="400.7777777777777" as="targetPoint" />
            <mxPoint x="621" y="396" as="sourcePoint" />
          </mxGeometry>
        </mxCell>
        <mxCell id="_l5loxVIPQLOWfMqPPV5-19" value="&lt;b&gt;&lt;font style=&quot;font-size: 18px;&quot;&gt;Pin Receipt&lt;/font&gt;&lt;/b&gt;" style="html=1;align=center;verticalAlign=top;rounded=1;absoluteArcSize=1;arcSize=10;dashed=0;whiteSpace=wrap;" vertex="1" parent="1">
          <mxGeometry x="621" y="370" width="180" height="50" as="geometry" />
        </mxCell>
        <mxCell id="_l5loxVIPQLOWfMqPPV5-23" value="&lt;font style=&quot;font-size: 14px;&quot;&gt;Transaction Complete&lt;/font&gt;" style="text;html=1;align=center;verticalAlign=middle;resizable=0;points=[];autosize=1;strokeColor=none;fillColor=none;" vertex="1" parent="1">
          <mxGeometry x="406" y="521" width="160" height="30" as="geometry" />
        </mxCell>
        <mxCell id="_l5loxVIPQLOWfMqPPV5-24" value="&lt;b&gt;&lt;font style=&quot;font-size: 18px;&quot;&gt;Pin Correct&lt;/font&gt;&lt;/b&gt;" style="html=1;align=center;verticalAlign=top;rounded=1;absoluteArcSize=1;arcSize=10;dashed=0;whiteSpace=wrap;" vertex="1" parent="1">
          <mxGeometry x="748" y="761" width="90" height="60" as="geometry" />
        </mxCell>
        <mxCell id="_l5loxVIPQLOWfMqPPV5-27" style="edgeStyle=orthogonalEdgeStyle;rounded=0;orthogonalLoop=1;jettySize=auto;html=1;exitX=1;exitY=0.5;exitDx=0;exitDy=0;exitPerimeter=0;entryX=0;entryY=0.5;entryDx=0;entryDy=0;" edge="1" parent="1" source="_l5loxVIPQLOWfMqPPV5-26" target="_l5loxVIPQLOWfMqPPV5-24">
          <mxGeometry relative="1" as="geometry">
            <mxPoint x="756" y="790" as="targetPoint" />
          </mxGeometry>
        </mxCell>
        <mxCell id="_l5loxVIPQLOWfMqPPV5-28" value="&lt;font style=&quot;font-size: 14px;&quot;&gt;[Pin Valid]&lt;/font&gt;" style="edgeLabel;html=1;align=center;verticalAlign=middle;resizable=0;points=[];" vertex="1" connectable="0" parent="_l5loxVIPQLOWfMqPPV5-27">
          <mxGeometry x="-0.3728" relative="1" as="geometry">
            <mxPoint x="12" as="offset" />
          </mxGeometry>
        </mxCell>
        <mxCell id="_l5loxVIPQLOWfMqPPV5-31" style="edgeStyle=orthogonalEdgeStyle;rounded=0;orthogonalLoop=1;jettySize=auto;html=1;exitX=0.5;exitY=1;exitDx=0;exitDy=0;exitPerimeter=0;entryX=0.5;entryY=0;entryDx=0;entryDy=0;" edge="1" parent="1" source="_l5loxVIPQLOWfMqPPV5-26" target="_l5loxVIPQLOWfMqPPV5-30">
          <mxGeometry relative="1" as="geometry" />
        </mxCell>
        <mxCell id="_l5loxVIPQLOWfMqPPV5-32" value="&lt;font style=&quot;font-size: 14px;&quot;&gt;Pin Invalid [Else]&lt;/font&gt;" style="edgeLabel;html=1;align=center;verticalAlign=middle;resizable=0;points=[];" vertex="1" connectable="0" parent="_l5loxVIPQLOWfMqPPV5-31">
          <mxGeometry x="-0.2066" y="-2" relative="1" as="geometry">
            <mxPoint y="-1" as="offset" />
          </mxGeometry>
        </mxCell>
        <mxCell id="_l5loxVIPQLOWfMqPPV5-26" value="" style="strokeWidth=2;html=1;shape=mxgraph.flowchart.decision;whiteSpace=wrap;" vertex="1" parent="1">
          <mxGeometry x="621" y="771" width="40" height="40" as="geometry" />
        </mxCell>
        <mxCell id="_l5loxVIPQLOWfMqPPV5-29" style="edgeStyle=orthogonalEdgeStyle;rounded=0;orthogonalLoop=1;jettySize=auto;html=1;exitX=1;exitY=0.5;exitDx=0;exitDy=0;entryX=0;entryY=0.5;entryDx=0;entryDy=0;entryPerimeter=0;" edge="1" parent="1" source="_l5loxVIPQLOWfMqPPV5-25" target="_l5loxVIPQLOWfMqPPV5-26">
          <mxGeometry relative="1" as="geometry" />
        </mxCell>
        <mxCell id="_l5loxVIPQLOWfMqPPV5-30" value="&lt;b&gt;&lt;font style=&quot;font-size: 18px;&quot;&gt;Pin Incorrect&lt;/font&gt;&lt;/b&gt;" style="html=1;align=center;verticalAlign=top;rounded=1;absoluteArcSize=1;arcSize=10;dashed=0;whiteSpace=wrap;" vertex="1" parent="1">
          <mxGeometry x="578" y="931" width="125" height="50" as="geometry" />
        </mxCell>
        <mxCell id="_l5loxVIPQLOWfMqPPV5-33" style="edgeStyle=orthogonalEdgeStyle;rounded=0;orthogonalLoop=1;jettySize=auto;html=1;exitX=0;exitY=0.5;exitDx=0;exitDy=0;entryX=0.404;entryY=1.028;entryDx=0;entryDy=0;entryPerimeter=0;" edge="1" parent="1" source="_l5loxVIPQLOWfMqPPV5-30" target="_l5loxVIPQLOWfMqPPV5-25">
          <mxGeometry relative="1" as="geometry" />
        </mxCell>
        <mxCell id="_l5loxVIPQLOWfMqPPV5-34" value="&lt;font style=&quot;font-size: 14px;&quot;&gt;[Tries &amp;lt; Max Tries]/Tries++&lt;/font&gt;" style="edgeLabel;html=1;align=center;verticalAlign=middle;resizable=0;points=[];" vertex="1" connectable="0" parent="_l5loxVIPQLOWfMqPPV5-33">
          <mxGeometry x="0.3134" relative="1" as="geometry">
            <mxPoint y="1" as="offset" />
          </mxGeometry>
        </mxCell>
        <mxCell id="_l5loxVIPQLOWfMqPPV5-38" style="edgeStyle=orthogonalEdgeStyle;rounded=0;orthogonalLoop=1;jettySize=auto;html=1;exitX=1;exitY=0.5;exitDx=0;exitDy=0;" edge="1" parent="1" source="_l5loxVIPQLOWfMqPPV5-37" target="_l5loxVIPQLOWfMqPPV5-25">
          <mxGeometry relative="1" as="geometry">
            <mxPoint x="421" y="831" as="targetPoint" />
          </mxGeometry>
        </mxCell>
        <mxCell id="_l5loxVIPQLOWfMqPPV5-37" value="&lt;b&gt;&lt;font style=&quot;font-size: 18px;&quot;&gt;Card Valid&lt;/font&gt;&lt;/b&gt;" style="html=1;align=center;verticalAlign=top;rounded=1;absoluteArcSize=1;arcSize=10;dashed=0;whiteSpace=wrap;" vertex="1" parent="1">
          <mxGeometry x="351" y="762" width="72" height="60" as="geometry" />
        </mxCell>
        <mxCell id="_l5loxVIPQLOWfMqPPV5-39" value="" style="group" vertex="1" connectable="0" parent="1">
          <mxGeometry x="444" y="751" width="170" height="95" as="geometry" />
        </mxCell>
        <mxCell id="_l5loxVIPQLOWfMqPPV5-58" value="" style="group" vertex="1" connectable="0" parent="_l5loxVIPQLOWfMqPPV5-39">
          <mxGeometry x="10" width="143.8461538461538" height="88.00243902439024" as="geometry" />
        </mxCell>
        <mxCell id="_l5loxVIPQLOWfMqPPV5-25" value="&lt;b&gt;&lt;font style=&quot;font-size: 18px;&quot;&gt;Verify Pin&lt;/font&gt;&lt;/b&gt;" style="html=1;align=center;verticalAlign=top;rounded=1;absoluteArcSize=1;arcSize=10;dashed=0;whiteSpace=wrap;" vertex="1" parent="_l5loxVIPQLOWfMqPPV5-58">
          <mxGeometry width="143.8461538461538" height="81.09756097560975" as="geometry" />
        </mxCell>
        <mxCell id="_l5loxVIPQLOWfMqPPV5-35" value="&lt;font style=&quot;font-size: 14px;&quot;&gt;Pin&amp;nbsp;&lt;span style=&quot;background-color: initial;&quot;&gt;Submitted /&amp;nbsp;&lt;/span&gt;&lt;/font&gt;&lt;div&gt;&lt;font style=&quot;font-size: 14px;&quot;&gt;&lt;span style=&quot;background-color: initial;&quot;&gt;Check&amp;nbsp;&lt;/span&gt;&lt;span style=&quot;background-color: initial;&quot;&gt;Pin /&amp;nbsp;&lt;/span&gt;&lt;/font&gt;&lt;/div&gt;&lt;div&gt;&lt;span style=&quot;background-color: initial;&quot;&gt;&lt;font style=&quot;font-size: 14px;&quot;&gt;Return card&lt;/font&gt;&lt;/span&gt;&lt;/div&gt;" style="text;html=1;align=center;verticalAlign=middle;resizable=0;points=[];autosize=1;strokeColor=none;fillColor=none;" vertex="1" parent="_l5loxVIPQLOWfMqPPV5-58">
          <mxGeometry x="10.996153846153849" y="28.00243902439024" width="120" height="60" as="geometry" />
        </mxCell>
        <mxCell id="_l5loxVIPQLOWfMqPPV5-50" value="" style="group" vertex="1" connectable="0" parent="1">
          <mxGeometry x="11" y="741" width="198" height="115" as="geometry" />
        </mxCell>
        <mxCell id="_l5loxVIPQLOWfMqPPV5-41" value="&lt;b&gt;&lt;font style=&quot;font-size: 18px;&quot;&gt;Verify Card&lt;/font&gt;&lt;/b&gt;" style="html=1;align=center;verticalAlign=top;rounded=1;absoluteArcSize=1;arcSize=10;dashed=0;whiteSpace=wrap;" vertex="1" parent="_l5loxVIPQLOWfMqPPV5-50">
          <mxGeometry x="5.2105263157894735" width="156.3157894736842" height="100.625" as="geometry" />
        </mxCell>
        <mxCell id="_l5loxVIPQLOWfMqPPV5-49" value="&lt;font style=&quot;font-size: 18px;&quot;&gt;Card&amp;nbsp;&lt;span style=&quot;background-color: initial;&quot;&gt;Submitted /&lt;br&gt;Read&amp;nbsp;&lt;/span&gt;&lt;span style=&quot;background-color: initial;&quot;&gt;Card /&amp;nbsp;&lt;/span&gt;&lt;/font&gt;&lt;div&gt;&lt;font style=&quot;font-size: 18px;&quot;&gt;&lt;span style=&quot;background-color: initial;&quot;&gt;Return Card&lt;/span&gt;&lt;/font&gt;&lt;/div&gt;" style="text;html=1;align=center;verticalAlign=middle;resizable=0;points=[];autosize=1;strokeColor=none;fillColor=none;" vertex="1" parent="_l5loxVIPQLOWfMqPPV5-50">
          <mxGeometry x="3.3668421052631636" y="26.5" width="160" height="80" as="geometry" />
        </mxCell>
        <mxCell id="_l5loxVIPQLOWfMqPPV5-52" style="edgeStyle=orthogonalEdgeStyle;rounded=0;orthogonalLoop=1;jettySize=auto;html=1;exitX=1;exitY=0.5;exitDx=0;exitDy=0;exitPerimeter=0;entryX=0;entryY=0.5;entryDx=0;entryDy=0;" edge="1" parent="1" target="_l5loxVIPQLOWfMqPPV5-37">
          <mxGeometry relative="1" as="geometry">
            <mxPoint x="237" y="791" as="sourcePoint" />
            <mxPoint x="321" y="791" as="targetPoint" />
          </mxGeometry>
        </mxCell>
        <mxCell id="_l5loxVIPQLOWfMqPPV5-53" value="&lt;font style=&quot;font-size: 14px;&quot;&gt;[Card&amp;nbsp;&lt;/font&gt;&lt;span style=&quot;font-size: 14px;&quot;&gt;Valid]&lt;/span&gt;" style="edgeLabel;html=1;align=center;verticalAlign=middle;resizable=0;points=[];" vertex="1" connectable="0" parent="_l5loxVIPQLOWfMqPPV5-52">
          <mxGeometry x="-0.7129" y="3" relative="1" as="geometry">
            <mxPoint x="37" y="3" as="offset" />
          </mxGeometry>
        </mxCell>
        <mxCell id="_l5loxVIPQLOWfMqPPV5-54" style="edgeStyle=orthogonalEdgeStyle;rounded=0;orthogonalLoop=1;jettySize=auto;html=1;exitX=0.5;exitY=0;exitDx=0;exitDy=0;exitPerimeter=0;entryX=0.5;entryY=1;entryDx=0;entryDy=0;" edge="1" parent="1" source="_l5loxVIPQLOWfMqPPV5-51" target="_l5loxVIPQLOWfMqPPV5-9">
          <mxGeometry relative="1" as="geometry" />
        </mxCell>
        <mxCell id="_l5loxVIPQLOWfMqPPV5-60" value="&lt;font style=&quot;font-size: 14px;&quot;&gt;[&lt;font style=&quot;&quot;&gt;Else&lt;/font&gt;]&lt;/font&gt;" style="edgeLabel;html=1;align=center;verticalAlign=middle;resizable=0;points=[];" vertex="1" connectable="0" parent="_l5loxVIPQLOWfMqPPV5-54">
          <mxGeometry x="-0.6401" y="1" relative="1" as="geometry">
            <mxPoint y="1" as="offset" />
          </mxGeometry>
        </mxCell>
        <mxCell id="_l5loxVIPQLOWfMqPPV5-51" value="" style="strokeWidth=2;html=1;shape=mxgraph.flowchart.decision;whiteSpace=wrap;" vertex="1" parent="1">
          <mxGeometry x="209" y="771" width="40" height="40" as="geometry" />
        </mxCell>
        <mxCell id="_l5loxVIPQLOWfMqPPV5-55" style="edgeStyle=orthogonalEdgeStyle;rounded=0;orthogonalLoop=1;jettySize=auto;html=1;exitX=1;exitY=0.5;exitDx=0;exitDy=0;entryX=0;entryY=0.5;entryDx=0;entryDy=0;entryPerimeter=0;" edge="1" parent="1" source="_l5loxVIPQLOWfMqPPV5-41" target="_l5loxVIPQLOWfMqPPV5-51">
          <mxGeometry relative="1" as="geometry" />
        </mxCell>
        <mxCell id="_l5loxVIPQLOWfMqPPV5-63" value="&lt;b&gt;&lt;u&gt;&lt;font style=&quot;font-size: 24px;&quot;&gt;State Chart Diagram for E-Voting System&lt;/font&gt;&lt;/u&gt;&lt;/b&gt;" style="text;html=1;align=center;verticalAlign=middle;whiteSpace=wrap;rounded=0;" vertex="1" parent="1">
          <mxGeometry x="50" y="931" width="430" height="109" as="geometry" />
        </mxCell>
      </root>
    </mxGraphModel>
  </diagram>
</mxfile>
